<?xml version="1.0" encoding="UTF-8"?>
<svg xmlns="http://www.w3.org/2000/svg" viewBox="0 0 801 801">
  <defs>
    <style>
      .cls-1 {
        fill: #e5e5e5;
      }

      .cls-1, .cls-2, .cls-3, .cls-4, .cls-5 {
        stroke-width: 0px;
      }

      .cls-3 {
        fill: #ba0808;
      }

      .cls-4 {
        fill: red;
      }

      .cls-5, .cls-6 {
        fill: #fff;
      }

      .cls-6 {
        stroke: #201600;
        stroke-miterlimit: 10;
      }
    </style>
  </defs>
  <g id="background">
    <rect class="cls-6" x=".5" y=".5" width="800" height="800"/>
  </g>
  <g id="objects">
    <g>
      <g>
        <path class="cls-2" d="m203.59,431.24s121.29-218.02,234.09-213.37c52.27,2.15,80.67,54.58,189.02,187.39,23.68,29.03-73.96.84-99.83-13.71,0,0,29.68,71.32,17.55,81.5-22.65,19.02-355.38-7.86-340.82-41.82Z"/>
        <path class="cls-4" d="m215.49,425.77s117.47-205.47,219.31-200.9c52.26,2.35,64.32,43.95,183.47,178.29,24.86,28.03-78.72-9.82-104.59-24.37,0,0,33.15,80.05,21.03,90.23-22.65,19.02-333.77-9.28-319.22-43.24Z"/>
        <path class="cls-2" d="m534.29,388.5c-23.44-14.47-31.93-28.12-58.41-67.34,0,0,39.93,64.92,46.65,80.67,6.72,15.75-3.59-15.03.66-15.03s13.5,3.16,11.11,1.69Z"/>
        <path class="cls-3" d="m475.88,321.17s89.8,82.6,124.64,83.02c0,0-3.12,4.08-3.67,5.67-.42,1.2-47.29-3.13-79.02-31.99-13.13-11.94-32.49-42.67-41.96-56.7Z"/>
        <path class="cls-2" d="m460.53,327.23s24.46,12.94,54.5,60.49c10.87,17.21-17.5-45.53-54.5-60.49Z"/>
      </g>
      <g>
        <path class="cls-2" d="m556.84,487.76c-.5-6.75-.27-11.76-17.71-26.07-18.36-9.96-32.22-13.51-43.25-14.85-3.58-.43,18.39-3.01,15.38-3.99-48.52-15.77-95.82-12.33-95.82-12.33l17.28-10.51c-28.6-7.88-89.09-6.38-115.9-2.46l19.43-9.22c-38.67-1.87-84.9,3.97-107.87,15.09-2.3,1.11,1.07-6.26,1.07-6.26l-16.76,4.67c-18.54,6.64-26.52,14.5-27.28,33.83l-.27,30.72c-.55,9.51,11.49,17.17,27.47,13.46,0,0,38.53-8.04,155.17.17,110.18,7.76,149.42,34.54,149.42,34.54,18.27,8.08,28.89-1.36,35.34-19.12l4.3-27.66Z"/>
        <path class="cls-5" d="m529.38,531.4c-2.73,0-5.85-.74-9.28-2.21-2.89-1.85-11.37-8.53-40.85-16.81-2.08-.58,6.86-1.09,6.86-1.09-17.28-2.43-53.78-10.25-77.6-13.34-5.68-.74,14.43-2.91,8.25-3.54-7.15-.73-40.69.11-48.54-.44-31.45-2.21-80.92.04-99.92-9.87-2.49-1.3,9.18,6.16,6.47,6.16-24.09,0-40.3.68-50.24,1.94-9.51,1.21-13.96-3.05-13.43-2.13,2.35,4.09.59,3.79.3,3.85l-.13.03c-2.28.53-4.52.8-6.65.8-4.98,0-9.37-1.5-11.75-4.02-1.17-1.23-1.71-2.57-1.63-3.97v-.3s.27-30.63.27-30.63c.62-15.52,8.89-24.98,30.72-31.24l-3.84,7.38c23.75-10.11,37.35-19.78,95.01-19.81-.87,1.2-13.04,11.43-13.04,11.43,0,0,49.02-6.38,118.22.29-.34.98-10.98,8.69-10.98,8.69,0,0,27.09,1.41,30.73,1.41,18.13,0,40.48,4.55,55.29,9.05-5.86.76-8.54,3.74-8.67,4.07,0,0,7.46,1.58,11.33,2.54,13.61,3.37,54.95,16.39,54.5,37.88l-4.1,26.4c-6.49,17.44-14.54,17.51-17.24,17.51h-.03Z"/>
        <path class="cls-1" d="m542.88,521.97c-5.55,9.39-11.28,9.44-13.48,9.44h-.04c-2.73,0-5.84-.75-9.28-2.22-2.89-1.84-11.37-8.53-40.85-16.81-2.07-.58,6.87-1.09,6.87-1.09-17.3-2.43-53.78-10.25-77.61-13.34-5.68-.74,14.43-2.91,8.25-3.54-7.16-.73-40.68.11-48.53-.44-31.45-2.22-80.92.04-99.93-9.87-2.49-1.3,9.18,6.16,6.46,6.16-24.09,0-40.29.68-50.24,1.94-9.52,1.2-13.96-3.06-13.44-2.13,2.35,4.09.59,3.78.3,3.84l-.13.04c-2.28.52-4.51.79-6.65.79-4.99,0-9.38-1.5-11.75-4.03-1.18-1.23-1.72-2.57-1.64-3.97v-.3s.27-30.62.27-30.62c.44-10.71,4.5-18.52,14.14-24.4-3.03,2.77-10.61,9.03-9.6,20.15l.38,24.71h0c.48,3.79,2.41,6.05,3.71,7.13,3.94,3.26,9.09,2.44,14.08,2.44,2.13,0,4.38-.27,6.65-.79l.13-.04c.29-.06,2.05.24-.29-3.84-.53-.92,3.92,3.33,13.43,2.13,9.94-1.26,26.15-1.94,50.24-1.94,2.73,0-8.95-7.46-6.46-6.16,19.01,9.91,68.48,7.65,99.93,9.87,7.85.55,44.64,3.15,51.79,3.88,6.17.63-11.94,4.72-6.27,5.46,23.83,3.09,57.56,7.33,74.84,9.75,0,0-9.5,1.84-7.43,2.43,29.5,8.28,36.05,11.86,38.95,13.71,3.42,1.47,6.54,2.22,9.28,2.22h.02c.84,0,2.21,0,3.88-.55Z"/>
      </g>
      <g>
        <path class="cls-2" d="m605.59,465.33c-5.43-4.05-36.53-21-24.97-55.59,3.39-10.13,13.79-22.93,20.73-28.71.82-.68-5.09,14.44-.3,10.61,15.54-12.44,39.81-23.44,55.91-19.13,1.37.37-11.65,7.65-10.29,8.14,1.89.68,26.38,8.64,35.99,29.46,0,0-5.61-4.12-8.69.63-1.83,2.83,6.72,11.62,2.11,34.47-2.23,11.07-12.67,28.6-23.56,30.35,0,0,.81-9.58-1.44-8.62-26.24,11.08-51.55,7.98-53.77,4.55-.23-.36,11.3-3.92,8.29-6.17Z"/>
        <path class="cls-5" d="m609.32,468.94c1.16,0,3.93-1.54,2.06-3.75-2.36-2.79-36.88-17.4-24.81-53.7,1.68-5.05,8.04-16.11,7.69-13.9-.38,2.38.31,9.54,4.33,4.48,9.45-11.88,31.04-24.84,44.78-24.46.03.35-4.61,2.9-3.17,5.33,1.02,1.72,22.3,4.4,37.19,22.77-4.76-2.63-8.39,1.1-8.27,2.58.65,8.17,6.19,15.75,2.86,32.77-1.77,9.07-7.77,21.95-13.18,25.27-.99-1.39.26-6.95-4.08-10.88-.88-.8-.01,1.93-4.84,5.6-17.88,13.58-39.74,8.62-40.56,7.9Z"/>
        <path class="cls-1" d="m673.09,431.88c-.04,2.92-.37,6.21-1.13,9.94-1.85,9.05-7.93,21.9-13.37,25.17-.97-1.4-1.25-7.85-3.07-10.75-.25-.4-.95,1.77-5.82,5.4-17.98,13.46-39.8,8.34-40.62,7.62,1.15,0,3.94-1.52,2.09-3.73-2.21-2.66-33.2-16.13-26-48.3.18,25.24,25.1,36.23,27.07,38.61,1.85,2.21-.93,3.74-2.09,3.73.82.72,22.65,5.84,40.63-7.61,4.85-3.63,3.98-6.34,4.88-5.56,2.53,2.22,4.1,9.3,4,10.91,5.43-3.27,11.53-16.12,13.37-25.17.01-.08.04-.17.05-.24Z"/>
      </g>
    </g>
  </g>
</svg>