<svg width="83" height="54" viewBox="0 0 83 54" fill="none" xmlns="http://www.w3.org/2000/svg">
<path d="M3.08087 35.6069C3.08087 35.6069 23.3146 -0.763485 42.1321 0.0122345C50.8518 0.3709 55.5896 9.11735 73.6647 31.2729C77.615 36.1157 61.3266 31.413 57.0109 28.9858C57.0109 28.9858 61.9621 40.8835 59.9386 42.5817C56.1601 45.7547 0.653623 41.2705 3.08254 35.6052L3.08087 35.6069Z" fill="black"/>
<path d="M5.06603 34.6944C5.06603 34.6944 24.6625 0.417638 41.6516 1.18001C50.3697 1.57204 52.3816 8.51181 72.2584 30.9226C76.4055 35.5986 59.1262 29.2844 54.8105 26.8572C54.8105 26.8572 60.3406 40.2112 58.3188 41.9095C54.5403 45.0824 2.63878 40.3614 5.06603 34.6961V34.6944Z" fill="#FF0000"/>
<path d="M58.2487 28.4769C54.3384 26.063 52.9221 23.7859 48.5046 17.2432C48.5046 17.2432 55.1658 28.0732 56.2869 30.7006C57.4079 33.3281 55.688 28.1933 56.397 28.1933C57.1059 28.1933 58.649 28.7205 58.2503 28.4752L58.2487 28.4769Z" fill="black"/>
<path d="M48.5047 17.2449C48.5047 17.2449 63.4853 31.0243 69.2973 31.0944C69.2973 31.0944 68.7769 31.775 68.6851 32.0403C68.615 32.2404 60.7961 31.5181 55.5029 26.7036C53.3125 24.7118 50.0829 19.5854 48.5031 17.2449H48.5047Z" fill="#BA0808"/>
<path d="M45.944 18.2559C45.944 18.2559 50.0244 20.4145 55.0357 28.3469C56.8491 31.2179 52.1164 20.7515 45.944 18.2559Z" fill="black"/>
<path d="M62.0105 45.0357C61.9271 43.9096 61.9655 43.0738 59.0561 40.6866C55.9933 39.0251 53.6811 38.4329 51.8411 38.2093C51.2439 38.1376 54.9089 37.7072 54.4068 37.5437C46.3126 34.9129 38.422 35.4868 38.422 35.4868L41.3047 33.7335C36.5336 32.419 26.4425 32.6692 21.9701 33.3231L25.2114 31.785C18.7604 31.4731 11.0483 32.4473 7.21638 34.3024C6.83269 34.4875 7.39488 33.2581 7.39488 33.2581L4.59895 34.0371C1.50608 35.1448 0.174848 36.456 0.0480639 39.6807L0.00302137 44.8054C-0.0887304 46.3919 1.9198 47.6698 4.58561 47.0509C4.58561 47.0509 11.0132 45.7096 30.4713 47.0792C48.8517 48.3738 55.3977 52.8412 55.3977 52.8412C58.4456 54.1891 60.2172 52.6144 61.2932 49.6516L62.0105 45.0373V45.0357Z" fill="black"/>
<path d="M57.4296 52.3157C56.9741 52.3157 56.4537 52.1923 55.8815 51.9471C55.3993 51.6384 53.9847 50.5241 49.0668 49.1428C48.7198 49.046 50.2112 48.961 50.2112 48.961C47.3285 48.5556 41.2395 47.251 37.2659 46.7356C36.3183 46.6121 39.6731 46.2501 38.6421 46.145C37.4494 46.0232 31.8542 46.1634 30.5446 46.0716C25.2981 45.7029 17.0454 46.0783 13.8758 44.4251C13.4604 44.2082 15.4073 45.4527 14.9552 45.4527C10.9364 45.4527 8.23227 45.5661 6.57406 45.7763C4.98759 45.9782 4.24524 45.2675 4.33365 45.421C4.72568 46.1033 4.43207 46.0533 4.3837 46.0633L4.36201 46.0683C3.98166 46.1567 3.60798 46.2017 3.25265 46.2017C2.42188 46.2017 1.68953 45.9515 1.2925 45.5311C1.09731 45.3259 1.00723 45.1024 1.02058 44.8688V44.8188L1.06562 39.709C1.16905 37.12 2.54866 35.5418 6.19037 34.4975L5.54978 35.7287C9.51179 34.0421 11.7806 32.429 21.3995 32.424C21.2543 32.6241 19.2241 34.3307 19.2241 34.3307C19.2241 34.3307 27.4017 33.2664 38.9457 34.3791C38.889 34.5426 37.1141 35.8288 37.1141 35.8288C37.1141 35.8288 41.6332 36.064 42.2405 36.064C45.2649 36.064 48.9934 36.823 51.464 37.5737C50.4865 37.7005 50.0394 38.1976 50.0177 38.2527C50.0177 38.2527 51.2622 38.5163 51.9078 38.6764C54.1782 39.2386 61.0746 41.4106 60.9995 44.9956L60.3156 49.3997C59.2329 52.3091 57.89 52.3207 57.4396 52.3207H57.4346L57.4296 52.3157Z" fill="white"/>
<path d="M59.6817 50.7426C58.7558 52.3091 57.8 52.3174 57.4329 52.3174H57.4263C56.9708 52.3174 56.452 52.1923 55.8782 51.9471C55.3961 51.6401 53.9814 50.5241 49.0635 49.1428C48.7182 49.0461 50.2096 48.961 50.2096 48.961C47.3236 48.5556 41.2379 47.2511 37.2626 46.7356C36.315 46.6121 39.6698 46.2501 38.6388 46.145C37.4444 46.0233 31.8525 46.1634 30.543 46.0716C25.2965 45.7013 17.0438 46.0783 13.8725 44.4251C13.4572 44.2082 15.404 45.4527 14.9502 45.4527C10.9315 45.4527 8.22897 45.5662 6.5691 45.7764C4.98096 45.9766 4.24027 45.2659 4.32702 45.421C4.71905 46.1033 4.42544 46.0516 4.37706 46.0616L4.35538 46.0683C3.97502 46.1551 3.60301 46.2001 3.24602 46.2001C2.41358 46.2001 1.68123 45.9499 1.28586 45.5278C1.08901 45.3226 0.998931 45.0991 1.01228 44.8655V44.8155L1.05732 39.7074C1.13072 37.9207 1.80802 36.6179 3.41617 35.637C2.9107 36.0991 1.6462 37.1434 1.81469 38.9984L1.87808 43.1206C1.95815 43.7528 2.28012 44.1298 2.49699 44.31C3.15426 44.8538 4.01339 44.717 4.84583 44.717C5.20116 44.717 5.57651 44.672 5.9552 44.5853L5.97688 44.5786C6.02526 44.5686 6.31887 44.6186 5.9285 43.938C5.84009 43.7845 6.58244 44.4935 8.16891 44.2933C9.82712 44.0831 12.5313 43.9697 16.55 43.9697C17.0054 43.9697 15.057 42.7252 15.4724 42.9421C18.6436 44.5953 26.8963 44.2183 32.1428 44.5886C33.4524 44.6803 39.5897 45.1141 40.7825 45.2359C41.8118 45.341 38.7906 46.0233 39.7365 46.1467C43.7119 46.6622 49.3388 47.3695 52.2214 47.7732C52.2214 47.7732 50.6366 48.0802 50.982 48.1786C55.9032 49.5599 56.9959 50.1571 57.4797 50.4657C58.0502 50.7109 58.5707 50.8361 59.0278 50.8361H59.0311C59.1712 50.8361 59.3998 50.8361 59.6784 50.7443L59.6817 50.7426Z" fill="#E5E5E5"/>
<path d="M70.1431 41.2938C69.2372 40.6182 64.0491 37.7906 65.9775 32.0202C66.543 30.3303 68.278 28.195 69.4357 27.2308C69.5725 27.1174 68.5866 29.6397 69.3857 29.0008C71.9781 26.9255 76.0268 25.0905 78.7127 25.8095C78.9412 25.8712 76.7692 27.0857 76.9961 27.1674C77.3114 27.2808 81.3968 28.6087 83 32.082C83 32.082 82.0641 31.3947 81.5503 32.1871C81.245 32.6592 82.6713 34.1255 81.9023 37.9374C81.5303 39.7841 79.7887 42.7085 77.972 43.0004C77.972 43.0004 78.1071 41.4023 77.7318 41.5624C73.3544 43.4108 69.1321 42.8937 68.7618 42.3215C68.7234 42.2614 70.6468 41.6675 70.1447 41.2922L70.1431 41.2938Z" fill="black"/>
<path d="M70.7654 41.8961C70.9589 41.8961 71.421 41.6392 71.109 41.2705C70.7153 40.8051 64.9566 38.3678 66.9702 32.3122C67.2504 31.4698 68.3114 29.6247 68.253 29.9934C68.1896 30.3904 68.3048 31.5849 68.9754 30.7408C70.5518 28.7589 74.1535 26.5969 76.4456 26.6603C76.4506 26.7187 75.6766 27.1441 75.9168 27.5495C76.087 27.8364 79.6369 28.2835 82.1209 31.348C81.3268 30.9092 80.7213 31.5315 80.7413 31.7784C80.8497 33.1413 81.7739 34.4058 81.2184 37.2451C80.9231 38.7582 79.9222 40.9068 79.0197 41.4607C78.8545 41.2288 79.0631 40.3013 78.3391 39.6457C78.1923 39.5122 78.3374 39.9676 77.5316 40.5799C74.5489 42.8453 70.9022 42.0179 70.7654 41.8978V41.8961Z" fill="white"/>
<path d="M81.4036 35.7137C81.3969 36.2008 81.3418 36.7497 81.2151 37.3719C80.9064 38.8816 79.8922 41.0253 78.9847 41.5708C78.8228 41.3373 78.7761 40.2613 78.4725 39.7775C78.4308 39.7107 78.314 40.0728 77.5016 40.6783C74.5022 42.9237 70.8621 42.0696 70.7253 41.9495C70.9172 41.9495 71.3826 41.6959 71.074 41.3272C70.7053 40.8835 65.5355 38.6364 66.7366 33.2698C66.7667 37.4803 70.9238 39.3137 71.2525 39.7107C71.5611 40.0794 71.0973 40.3347 70.9038 40.333C71.0406 40.4531 74.6823 41.3072 77.6818 39.0635C78.4909 38.4579 78.3457 38.0058 78.4959 38.136C78.9179 38.5063 79.1798 39.6874 79.1631 39.956C80.069 39.4105 81.0866 37.2668 81.3936 35.7571C81.3952 35.7437 81.4002 35.7287 81.4019 35.717L81.4036 35.7137Z" fill="#E5E5E5"/>
</svg>
